<?xml version="1.0" encoding="UTF-8" standalone="no"?>
<svg
   xmlns:dc="http://purl.org/dc/elements/1.1/"
   xmlns:cc="http://creativecommons.org/ns#"
   xmlns:rdf="http://www.w3.org/1999/02/22-rdf-syntax-ns#"
   xmlns:svg="http://www.w3.org/2000/svg"
   xmlns="http://www.w3.org/2000/svg"
   viewBox="0 0 853.33331 554.01733"
   height="554.01733"
   width="853.33331"
   xml:space="preserve"
   id="svg2"
   version="1.1"><metadata
     id="metadata8"><rdf:RDF><cc:Work
         rdf:about=""><dc:format>image/svg+xml</dc:format><dc:type
           rdf:resource="http://purl.org/dc/dcmitype/StillImage" /></cc:Work></rdf:RDF></metadata><defs
     id="defs6"><linearGradient
       id="linearGradient36"
       spreadMethod="pad"
       gradientTransform="matrix(639.75311,0,0,-639.75311,0.1234353,207.75641)"
       gradientUnits="userSpaceOnUse"
       y2="0"
       x2="1"
       y1="0"
       x1="0"><stop
         id="stop24"
         offset="0"
         style="stop-opacity:1;stop-color:#008bba" /><stop
         id="stop26"
         offset="0.32312134"
         style="stop-opacity:1;stop-color:#0c84b4" /><stop
         id="stop28"
         offset="0.324039"
         style="stop-opacity:1;stop-color:#0c84b4" /><stop
         id="stop30"
         offset="0.61324495"
         style="stop-opacity:1;stop-color:#b81b60" /><stop
         id="stop32"
         offset="0.994161"
         style="stop-opacity:1;stop-color:#b81b60" /><stop
         id="stop34"
         offset="1"
         style="stop-opacity:1;stop-color:#b81b60" /></linearGradient><clipPath
       id="clipPath46"
       clipPathUnits="userSpaceOnUse"><path
         id="path44"
         d="M 0,415.513 H 640 V 0 H 0 Z" /></clipPath><clipPath
       id="clipPath58"
       clipPathUnits="userSpaceOnUse"><path
         id="path56"
         d="m 126.906,187.545 h 6.839 v -7.769 h -6.839 z" /></clipPath></defs><g
     transform="matrix(1.3333333,0,0,-1.3333333,0,554.01733)"
     id="g10"><g
       id="g12"><g
         id="g14"><g
           id="g20"><g
             id="g22"><path
               id="path38"
               style="fill:url(#linearGradient36);stroke:none"
               d="M 0.123,0 H 639.876 V 415.513 H 0.123 Z" /></g></g></g></g><g
       id="g40"><g
         clip-path="url(#clipPath46)"
         id="g42"><g
           transform="translate(524.2781,179.4765)"
           id="g48"><path
             id="path50"
             style="fill:#f4f4f4;fill-opacity:1;fill-rule:nonzero;stroke:none"
             d="m 0,0 c -3.541,0 -6.851,0.476 -9.934,1.424 -3.082,0.948 -5.635,1.959 -7.657,3.035 v 10.004 h 0.473 c 0.758,-0.601 1.651,-1.265 2.68,-1.992 1.027,-0.728 2.394,-1.486 4.101,-2.276 1.517,-0.696 3.185,-1.311 5.003,-1.85 1.816,-0.537 3.706,-0.805 5.665,-0.805 1.424,0 2.942,0.166 4.552,0.498 1.614,0.332 2.815,0.751 3.604,1.256 1.107,0.728 1.905,1.501 2.396,2.324 0.488,0.821 0.735,2.054 0.735,3.698 0,2.117 -0.578,3.715 -1.732,4.789 -1.154,1.075 -3.199,1.975 -6.141,2.703 -1.138,0.285 -2.623,0.617 -4.456,0.997 -1.833,0.379 -3.526,0.789 -5.074,1.231 -4.047,1.17 -6.987,2.979 -8.819,5.43 -1.834,2.45 -2.751,5.413 -2.751,8.891 0,4.773 1.802,8.661 5.406,11.664 3.604,3.004 8.393,4.505 14.367,4.505 2.941,0 5.895,-0.363 8.867,-1.091 2.971,-0.727 5.468,-1.643 7.492,-2.749 v -9.532 h -0.474 c -2.276,1.802 -4.813,3.225 -7.61,4.268 -2.798,1.043 -5.62,1.564 -8.465,1.564 -2.939,0 -5.422,-0.616 -7.444,-1.849 -2.023,-1.232 -3.035,-3.099 -3.035,-5.595 0,-2.213 0.6,-3.865 1.802,-4.955 1.201,-1.091 3.13,-1.984 5.785,-2.678 1.328,-0.349 2.806,-0.689 4.434,-1.02 1.627,-0.333 3.343,-0.719 5.144,-1.163 3.919,-0.979 6.868,-2.607 8.843,-4.883 1.976,-2.276 2.965,-5.375 2.965,-9.294 0,-2.276 -0.451,-4.434 -1.353,-6.472 C 18.469,8.038 17.149,6.291 15.411,4.838 13.515,3.256 11.371,2.056 8.986,1.234 6.599,0.411 3.604,0 0,0 m -43.339,0 c -3.541,0 -6.851,0.476 -9.934,1.424 -3.082,0.948 -5.635,1.959 -7.657,3.035 v 10.004 h 0.473 c 0.758,-0.601 1.651,-1.265 2.68,-1.992 1.027,-0.728 2.394,-1.486 4.101,-2.276 1.517,-0.696 3.185,-1.311 5.003,-1.85 1.816,-0.537 3.706,-0.805 5.665,-0.805 1.424,0 2.941,0.166 4.552,0.498 1.614,0.332 2.815,0.751 3.604,1.256 1.107,0.728 1.905,1.501 2.396,2.324 0.488,0.821 0.735,2.054 0.735,3.698 0,2.117 -0.578,3.715 -1.732,4.789 -1.154,1.075 -3.2,1.975 -6.141,2.703 -1.138,0.285 -2.623,0.617 -4.456,0.997 -1.833,0.379 -3.526,0.789 -5.074,1.231 -4.047,1.17 -6.987,2.979 -8.819,5.43 -1.834,2.45 -2.751,5.413 -2.751,8.891 0,4.773 1.802,8.661 5.406,11.664 3.604,3.004 8.393,4.505 14.366,4.505 2.942,0 5.896,-0.363 8.868,-1.091 2.971,-0.727 5.468,-1.643 7.492,-2.749 v -9.532 h -0.474 c -2.276,1.802 -4.813,3.225 -7.61,4.268 -2.798,1.043 -5.62,1.564 -8.465,1.564 -2.939,0 -5.422,-0.616 -7.444,-1.849 -2.023,-1.232 -3.035,-3.099 -3.035,-5.595 0,-2.213 0.6,-3.865 1.802,-4.955 1.201,-1.091 3.13,-1.984 5.785,-2.678 1.328,-0.349 2.806,-0.689 4.434,-1.02 1.627,-0.333 3.342,-0.719 5.144,-1.163 3.919,-0.979 6.868,-2.607 8.843,-4.883 1.976,-2.276 2.965,-5.375 2.965,-9.294 0,-2.276 -0.451,-4.434 -1.353,-6.472 -0.9,-2.039 -2.22,-3.786 -3.958,-5.239 -1.896,-1.582 -4.04,-2.782 -6.425,-3.604 C -36.74,0.411 -39.735,0 -43.339,0 m -32.007,33.667 c -0.063,2.402 -0.347,4.472 -0.852,6.211 -0.506,1.738 -1.234,3.209 -2.183,4.411 -1.042,1.328 -2.378,2.339 -4.006,3.035 -1.628,0.694 -3.643,1.041 -6.046,1.041 -2.37,0 -4.386,-0.354 -6.045,-1.066 -1.66,-0.711 -3.17,-1.747 -4.528,-3.106 -1.328,-1.391 -2.341,-2.932 -3.035,-4.623 -0.696,-1.692 -1.138,-3.659 -1.328,-5.903 z M -85.778,0.048 c -8.439,0 -14.991,2.378 -19.654,7.136 -4.663,4.758 -6.993,11.514 -6.993,20.271 0,8.63 2.259,15.497 6.78,20.602 4.52,5.105 10.432,7.659 17.734,7.659 3.287,0 6.195,-0.475 8.725,-1.423 2.528,-0.948 4.741,-2.435 6.638,-4.457 1.897,-2.024 3.35,-4.497 4.363,-7.42 1.011,-2.926 1.517,-6.505 1.517,-10.742 v -4.835 h -36.701 c 0,-6.165 1.548,-10.875 4.647,-14.131 3.097,-3.255 7.381,-4.883 12.851,-4.883 1.959,0 3.879,0.22 5.76,0.663 1.88,0.442 3.58,1.011 5.097,1.707 1.613,0.727 2.971,1.43 4.078,2.11 1.106,0.68 2.022,1.32 2.751,1.92 h 0.522 v -9.72 c -1.045,-0.411 -2.34,-0.925 -3.89,-1.54 -1.548,-0.617 -2.938,-1.099 -4.172,-1.448 -1.738,-0.472 -3.311,-0.836 -4.717,-1.09 -1.408,-0.252 -3.185,-0.379 -5.336,-0.379 m -29.445,44.62 h -0.474 c -0.664,0.19 -1.367,0.308 -2.11,0.355 -0.744,0.048 -1.635,0.071 -2.68,0.071 -2.402,0 -4.788,-0.522 -7.159,-1.564 -2.371,-1.044 -4.616,-2.592 -6.733,-4.648 V 1.281 h -8.915 v 52.964 h 8.915 v -7.87 c 3.255,2.876 6.092,4.907 8.511,6.093 2.418,1.185 4.765,1.777 7.041,1.777 0.917,0 1.604,-0.023 2.063,-0.07 0.458,-0.048 0.972,-0.12 1.541,-0.213 z m -46.515,-16.501 c 0,6.037 -0.966,10.724 -2.893,14.059 -1.929,3.334 -5.059,5.001 -9.389,5.001 -2.53,0 -4.971,-0.56 -7.326,-1.682 -2.356,-1.123 -4.592,-2.569 -6.709,-4.339 V 11.19 c 2.338,-1.138 4.339,-1.912 5.997,-2.322 1.661,-0.412 3.565,-0.616 5.715,-0.616 4.615,0 8.203,1.689 10.763,5.073 2.561,3.382 3.842,8.329 3.842,14.842 m 9.197,0.995 c 0,-8.819 -2.11,-15.846 -6.329,-21.076 -4.221,-5.232 -9.555,-7.848 -16.003,-7.848 -2.625,0 -4.948,0.3 -6.97,0.9 -2.024,0.601 -4.095,1.533 -6.212,2.798 v -22.191 h -8.915 v 72.5 h 8.915 v -5.547 c 2.211,1.991 4.67,3.659 7.373,5.003 2.702,1.342 5.649,2.015 8.843,2.015 6.07,0 10.803,-2.403 14.202,-7.208 3.398,-4.806 5.096,-11.254 5.096,-19.346 M -203.893,1.281 h -10.954 l -12.849,20.01 -13.228,-20.01 h -10.101 l 18.398,26.269 -18.208,26.695 h 10.952 l 12.756,-19.819 13.087,19.819 h 10.147 l -18.303,-26.078 z m -58.845,32.386 c -0.062,2.402 -0.347,4.472 -0.852,6.211 -0.506,1.738 -1.234,3.209 -2.182,4.411 -1.042,1.328 -2.379,2.339 -4.007,3.035 -1.628,0.694 -3.643,1.041 -6.046,1.041 -2.369,0 -4.385,-0.354 -6.044,-1.066 -1.661,-0.711 -3.171,-1.747 -4.529,-3.106 -1.328,-1.391 -2.34,-2.932 -3.035,-4.623 -0.696,-1.692 -1.138,-3.659 -1.327,-5.903 z M -273.169,0.048 c -8.439,0 -14.991,2.378 -19.654,7.136 -4.663,4.758 -6.993,11.514 -6.993,20.271 0,8.63 2.258,15.497 6.78,20.602 4.52,5.105 10.431,7.659 17.734,7.659 3.287,0 6.194,-0.475 8.724,-1.423 2.529,-0.948 4.742,-2.435 6.639,-4.457 1.896,-2.024 3.349,-4.497 4.362,-7.42 1.011,-2.926 1.517,-6.505 1.517,-10.742 v -4.835 h -36.7 c 0,-6.165 1.548,-10.875 4.646,-14.131 3.098,-3.255 7.381,-4.883 12.851,-4.883 1.96,0 3.88,0.22 5.76,0.663 1.881,0.442 3.581,1.011 5.098,1.707 1.612,0.727 2.97,1.43 4.078,2.11 1.106,0.68 2.022,1.32 2.75,1.92 h 0.522 v -9.72 c -1.044,-0.411 -2.34,-0.925 -3.889,-1.54 -1.548,-0.617 -2.939,-1.099 -4.173,-1.448 -1.738,-0.472 -3.31,-0.836 -4.717,-1.09 -1.408,-0.252 -3.185,-0.379 -5.335,-0.379 m -120.944,8.021 c 0.009,-0.007 0,0 0,0 L -397.35,0.5 c -0.075,-0.189 0.059,-0.25 0.163,-0.156 l 6.654,4.49 c 0,0 4.784,-4.171 5.07,-4.381 0.253,-0.187 0.539,-0.347 0.856,-0.39 0.313,-0.043 0.606,0 0.819,0.245 0.236,0.271 0.474,0.541 0.709,0.813 0.494,0.571 26.276,32.2 26.276,32.2 0,0 -37.251,-25.21 -37.31,-25.252 m -4.87,9.761 c -2.948,-1.291 -6.449,-2.733 -9.75,-2.373 -1.337,0.146 -2.666,0.735 -3.248,2.017 -0.64,1.407 -0.053,3.168 0.857,4.329 1.882,2.4 5.026,3.215 7.916,3.601 0.368,0.049 3.874,0.578 4.726,0.641 v -4.64 l 17.884,5.609 v 11.88 c 0,6.256 -1.172,9.291 -5.359,12.341 -4.205,3.063 -10.727,4.588 -19.953,4.574 -3.824,-0.005 -8.594,-0.391 -12.357,-1.064 -3.406,-0.609 -6.616,-1.139 -8.32,-1.59 v -6.681 -3.083 -3.329 c 0.241,0.005 1.221,0 1.221,0 4.59,2.209 9.794,3.545 14.874,3.893 2.01,0.138 4.027,0.221 6.03,-0.054 1.884,-0.258 3.899,-0.819 5.091,-2.427 0.296,-0.399 0.59,-0.868 0.682,-1.353 0.233,-1.238 0.207,-2.541 0.207,-3.792 v -0.284 c -4.259,-0.317 -7.893,-0.759 -12.064,-1.327 -4.171,-0.569 -7.06,-1.581 -10.061,-3.034 -2.971,-1.421 -4.897,-3.349 -6.476,-5.782 -1.581,-2.434 -2.195,-5.625 -2.195,-9.574 0,-2.676 0.197,-5.495 1.455,-7.911 1.963,-3.772 6.501,-5.36 10.55,-5.091 3.489,0.232 6.937,1.109 10.217,2.268 2.662,0.939 5.178,2.206 7.683,3.495 2.601,1.338 42.185,24.011 42.57,24.232 0,0 -39.887,-14.488 -42.18,-15.491 m 93.385,36.652 c -1.422,0 -2.931,-0.261 -4.527,-0.783 -1.595,-0.52 -2.994,-1.144 -4.194,-1.871 -1.107,-0.633 -2.33,-1.478 -3.673,-2.536 -1.343,-1.058 -2.393,-1.936 -3.152,-2.631 v 7.632 h -16.588 V 1.067 h 16.588 v 35.641 c 1.801,0.695 3.658,1.295 5.57,1.801 1.91,0.505 3.736,0.759 5.473,0.759 1.454,0 2.781,-0.056 3.981,-0.167 1.202,-0.11 2.117,-0.277 2.75,-0.497 h 1.374 v 15.689 c -0.538,0.063 -1.137,0.109 -1.801,0.141 -0.664,0.031 -1.264,0.048 -1.801,0.048 m -61.899,7.394 h 17.536 v 12.938 h -17.536 z m 0,-7.583 h 17.063 V 1.067 h -17.063 v 15.862 l 14.32,18.654 -14.32,-4.481 z" /></g><g
           id="g52"><g
             id="g54" /><g
             id="g66"><g
               style="opacity:0.30000299"
               id="g64"
               clip-path="url(#clipPath58)"><g
                 id="g62"
                 transform="translate(130.1649,187.5447)"><path
                   id="path60"
                   style="fill:#000000;fill-opacity:1;fill-rule:nonzero;stroke:none"
                   d="m 0,0 -3.237,-7.569 c -0.075,-0.189 0.059,-0.25 0.163,-0.156 l 6.654,4.49 z" /></g></g></g></g></g></g></g></svg>