<svg width="255" height="48" viewBox="0 0 255 48" fill="none" xmlns="http://www.w3.org/2000/svg">
<g clip-path="url(#clip0_401_732)">
<path d="M80.2327 9.70728C75.6807 9.70728 72.1389 11.0406 69.6072 13.7073C67.0745 16.3745 65.8085 19.9435 65.809 24.4142C65.809 28.9838 67.1673 32.5043 69.8838 34.9756C72.6 37.4476 76.5062 38.6834 81.6026 38.6829C82.7879 38.6958 83.9727 38.6266 85.1487 38.4758C86.1005 38.3408 87.0437 38.1494 87.9735 37.9024C88.7708 37.7199 89.5542 37.4794 90.3175 37.1827C90.8864 36.9471 91.5153 36.6909 92.2045 36.4142V29.3658H91.3146C90.9463 29.6428 90.4697 29.96 89.8848 30.3174C89.269 30.691 88.6306 31.0249 87.9735 31.3171C87.1382 31.6915 86.2685 31.9815 85.3772 32.1831C84.4308 32.4023 83.4631 32.5125 82.4924 32.5118C81.4341 32.5203 80.3781 32.41 79.3436 32.1831C78.4413 31.9889 77.5843 31.6205 76.8191 31.0979C76.0689 30.5791 75.4576 29.8792 75.0402 29.0611C74.5558 28.0692 74.2855 26.9839 74.2472 25.8776H92.6852V22.8052C92.6852 18.5936 91.6435 15.3576 89.5601 13.0971C87.4764 10.8375 84.3673 9.70754 80.2327 9.70728ZM74.2228 20.7317C74.319 19.0244 74.8279 17.6748 75.7495 16.6829C76.6704 15.6915 77.9483 15.1957 79.5833 15.1955C81.1862 15.1955 82.3763 15.6667 83.1537 16.6093C83.9304 17.5527 84.3429 18.9268 84.3912 20.7317H74.2228ZM113.744 24.0488L123.648 37.9512H113.792L108.648 30.0728L103.359 37.9512H93.6949L103.623 24.2686L93.8635 10.5606H103.719L108.768 18.2927L113.84 10.5606H123.528L113.744 24.0488ZM143.409 9.80483C141.869 9.77203 140.343 10.1151 138.961 10.8052C137.607 11.5216 136.34 12.3975 135.187 13.4146V10.5606H126.773V48H135.187V36.5853C136.19 37.1823 137.254 37.665 138.361 38.0248C139.502 38.3535 140.684 38.5096 141.87 38.4878C145.075 38.4878 147.772 37.1462 149.959 34.463C152.147 31.7808 153.241 28.2526 153.241 23.8784C153.241 19.5362 152.384 16.105 150.669 13.585C148.953 11.0649 146.534 9.80485 143.409 9.80483ZM143.145 30.1831C142.151 31.5407 140.628 32.2194 138.577 32.2191C137.938 32.226 137.299 32.1854 136.666 32.0975C136.158 32.0246 135.661 31.8854 135.187 31.6833V17.9024C135.867 17.4353 136.607 17.0658 137.387 16.8045C138.113 16.5642 138.871 16.4409 139.634 16.439C141.35 16.439 142.612 17.0406 143.421 18.2439C144.23 19.4476 144.634 21.3826 144.634 24.0488C144.634 26.7805 144.138 28.8252 143.145 30.1831V30.1831ZM174.972 10.4878C175.309 10.5043 175.614 10.5285 175.886 10.5606V18.6341H175.189C174.735 18.4951 174.267 18.4092 173.794 18.3782C173.185 18.3212 172.512 18.2927 171.775 18.2927C170.837 18.3007 169.904 18.4319 168.999 18.6829C168.041 18.9394 167.098 19.2488 166.174 19.6097V37.9512H157.76V10.5606H166.174V14.4878C166.559 14.1306 167.091 13.6793 167.772 13.1339C168.362 12.6537 168.984 12.2175 169.636 11.8289C170.306 11.4268 171.02 11.1038 171.763 10.866C172.503 10.6094 173.277 10.4733 174.059 10.463C174.331 10.463 174.636 10.472 174.972 10.4878ZM191.56 9.70728C187.008 9.70728 183.466 11.0406 180.934 13.7073C178.402 16.3745 177.136 19.9435 177.136 24.4142C177.136 28.9838 178.494 32.5043 181.211 34.9756C183.927 37.4476 187.833 38.6834 192.93 38.6829C194.115 38.6958 195.3 38.6266 196.476 38.4758C197.428 38.3408 198.371 38.1494 199.301 37.9024C200.098 37.7199 200.881 37.4794 201.645 37.1827C202.213 36.9471 202.842 36.6909 203.532 36.4142V29.3658H202.642C202.273 29.6428 201.797 29.96 201.212 30.3174C200.596 30.691 199.958 31.0249 199.301 31.3171C198.465 31.6915 197.596 31.9815 196.704 32.1831C195.758 32.4023 194.79 32.5125 193.82 32.5118C192.761 32.5203 191.705 32.41 190.671 32.1831C189.768 31.9889 188.911 31.6205 188.146 31.0979C187.396 30.5791 186.785 29.8792 186.367 29.0611C185.883 28.0692 185.613 26.9839 185.574 25.8776H204.012V22.8052C204.012 18.5936 202.971 15.3576 200.887 13.0971C198.804 10.8375 195.694 9.70754 191.56 9.70728V9.70728ZM185.55 20.7317C185.646 19.0244 186.155 17.6748 187.077 16.6829C187.998 15.6915 189.275 15.1957 190.91 15.1955C192.513 15.1955 193.703 15.6667 194.481 16.6093C195.257 17.5527 195.67 18.9268 195.718 20.7317H185.55ZM228.16 24.4998C229.161 25.7275 229.662 27.3576 229.662 29.3898C229.664 30.6686 229.359 31.9286 228.773 33.0611C228.174 34.2305 227.309 35.2381 226.249 36C225.016 36.9015 223.637 37.5783 222.174 38C220.346 38.5064 218.456 38.7448 216.561 38.7077C214.663 38.7181 212.77 38.4969 210.924 38.0488C209.41 37.7013 207.939 37.1858 206.537 36.5118V29.2923H207.234C207.634 29.6015 208.09 29.9432 208.604 30.3174C209.276 30.7796 209.993 31.1719 210.743 31.4882C211.599 31.8877 212.488 32.2099 213.4 32.451C214.447 32.7276 215.527 32.8631 216.609 32.854C217.681 32.8751 218.746 32.6844 219.746 32.2927C220.651 31.9189 221.104 31.3256 221.104 30.5125C221.122 30.2394 221.074 29.966 220.965 29.7154C220.857 29.4649 220.69 29.2446 220.48 29.0732C220.063 28.7482 219.253 28.4393 218.051 28.1463C217.41 27.9842 216.601 27.8094 215.623 27.6217C214.746 27.4598 213.879 27.2441 213.027 26.9756C210.911 26.3092 209.321 25.3213 208.255 24.012C207.189 22.7032 206.656 20.9836 206.657 18.8532C206.653 17.6517 206.937 16.4674 207.486 15.4026C208.082 14.27 208.915 13.2833 209.926 12.5118C211.126 11.6192 212.474 10.9503 213.905 10.5365C215.642 10.0263 217.445 9.77976 219.253 9.80482C221.008 9.78968 222.759 9.9821 224.47 10.3782C225.853 10.6894 227.199 11.1514 228.485 11.7561V18.6829H227.812C227.371 18.3534 226.914 18.0481 226.442 17.7681C225.851 17.4052 225.241 17.0755 224.615 16.7805C223.852 16.4359 223.059 16.1665 222.246 15.9759C221.368 15.7637 220.468 15.6572 219.566 15.6585C218.502 15.626 217.445 15.843 216.477 16.2927C215.636 16.7159 215.215 17.2768 215.215 17.9752C215.202 18.2513 215.252 18.5267 215.36 18.7804C215.469 19.034 215.633 19.2592 215.84 19.4386C216.256 19.7966 217.162 20.1463 218.557 20.4878C219.277 20.6672 220.106 20.842 221.044 21.0124C221.961 21.1775 222.865 21.4097 223.749 21.7073C225.688 22.3415 227.158 23.2723 228.16 24.4998H228.16ZM255 29.3898C255.001 30.6686 254.696 31.9286 254.111 33.0611C253.512 34.2305 252.647 35.2381 251.587 36C250.353 36.9015 248.975 37.5783 247.512 38C245.684 38.5064 243.794 38.7448 241.899 38.7077C240.001 38.7181 238.108 38.4969 236.262 38.0488C234.748 37.7013 233.277 37.1858 231.875 36.5118V29.2923H232.571C232.972 29.6015 233.428 29.9432 233.941 30.3174C234.614 30.7796 235.331 31.1719 236.081 31.4882C236.937 31.8877 237.826 32.2099 238.737 32.451C239.785 32.7276 240.864 32.8631 241.947 32.854C243.019 32.8751 244.084 32.6844 245.084 32.2927C245.989 31.9189 246.442 31.3256 246.442 30.5125C246.459 30.2394 246.412 29.966 246.303 29.7154C246.195 29.4649 246.028 29.2446 245.818 29.0732C245.4 28.7482 244.591 28.4393 243.389 28.1463C242.748 27.9842 241.938 27.8094 240.961 27.6217C240.083 27.4598 239.216 27.2441 238.365 26.9756C236.249 26.3092 234.659 25.3213 233.593 24.012C232.527 22.7032 231.994 20.9836 231.994 18.8532C231.99 17.6517 232.275 16.4674 232.824 15.4026C233.42 14.27 234.252 13.2833 235.264 12.5118C236.464 11.6192 237.811 10.9503 239.243 10.5365C240.98 10.0263 242.783 9.77976 244.591 9.80482C246.346 9.78968 248.097 9.9821 249.807 10.3782C251.191 10.6894 252.537 11.1514 253.822 11.7561V18.6829H253.149C252.709 18.3534 252.252 18.0481 251.779 17.7681C251.189 17.4052 250.579 17.0755 249.952 16.7805C249.19 16.4359 248.397 16.1665 247.584 15.9759C246.706 15.7637 245.806 15.6572 244.903 15.6585C243.839 15.626 242.782 15.843 241.814 16.2927C240.973 16.7159 240.553 17.2768 240.553 17.9752C240.54 18.2513 240.59 18.5267 240.698 18.7804C240.806 19.034 240.97 19.2592 241.178 19.4386C241.594 19.7966 242.5 20.1463 243.894 20.4878C244.615 20.6672 245.444 20.842 246.382 21.0124C247.299 21.1775 248.203 21.4097 249.087 21.7073C251.026 22.3415 252.496 23.2723 253.498 24.4998C254.499 25.7275 255 27.3576 255 29.3898Z" fill="#9C215E"/>
<path d="M31.3361 10.5606H39.9904V37.9512L31.3361 37.9513V29.7883L38.5993 20.1889L31.3361 22.495V10.5606ZM31.3361 6.65814H40.2308V0H31.3361V6.65814ZM62.7319 10.463C61.9504 10.4734 61.1754 10.6094 60.4359 10.866C59.693 11.1038 58.9793 11.4269 58.3086 11.8289C57.6572 12.2176 57.0344 12.6537 56.4453 13.134C55.7641 13.6788 55.2313 14.1301 54.8469 14.4878V10.5606H46.433V37.9512H54.8469V19.6097C55.7712 19.2489 56.7142 18.9395 57.6717 18.6829C58.5766 18.4319 59.5097 18.3008 60.4477 18.2927C61.1852 18.2927 61.8583 18.3212 62.4671 18.3782C62.9402 18.4092 63.4082 18.4951 63.8621 18.6341H64.5589V10.5606C64.2859 10.5283 63.9814 10.5041 63.6454 10.4878C63.3088 10.472 63.0041 10.463 62.7319 10.463ZM15.3661 29.3247C13.8707 29.9888 12.0949 30.7313 10.4205 30.546C9.74231 30.471 9.06861 30.1678 8.77311 29.508C8.4488 28.7837 8.74617 27.8776 9.20782 27.2803C10.1625 26.0451 11.7571 25.6257 13.2228 25.4271C13.4095 25.4018 15.1879 25.1294 15.6199 25.0972V27.485L24.6911 24.5984V18.4852C24.6911 15.2657 24.0967 13.7036 21.9731 12.1343C19.8399 10.5581 16.5323 9.7731 11.8523 9.78014C9.75209 9.79068 7.6562 9.97383 5.58517 10.3278C3.85732 10.6412 2.22908 10.9143 1.36516 11.1459V17.884C1.4872 17.8811 1.98423 17.884 1.98423 17.884C4.3533 16.743 6.91241 16.0635 9.52861 15.8805C10.5462 15.7836 11.571 15.7929 12.5867 15.9081C13.5424 16.0412 14.5646 16.33 15.1691 17.1572C15.3332 17.3608 15.4512 17.5984 15.515 17.8533C15.609 18.4992 15.6441 19.1525 15.6199 19.8049V19.9512C13.4601 20.1141 11.6167 20.3415 9.50121 20.6341C7.72541 20.858 5.9999 21.3858 4.39808 22.1951C3.04217 22.8432 1.90101 23.877 1.11334 25.1707C0.311527 26.4233 2.65847e-05 28.0652 0 30.0975C0 31.4747 0.100001 32.9255 0.73782 34.1687C1.73381 36.1101 4.03517 36.9269 6.08907 36.7885C7.86071 36.64 9.60417 36.2474 11.2714 35.6217C12.6091 35.1123 13.911 34.5114 15.1684 33.823C16.4874 33.1346 36.5648 21.4667 36.7602 21.3531C36.7602 21.3531 16.5292 28.8083 15.3661 29.3247ZM17.8362 34.3476L16.1944 38.243C16.1561 38.3402 16.224 38.3713 16.2767 38.323L19.652 36.0125C19.652 36.0125 22.0785 38.1589 22.2233 38.2672C22.3493 38.3697 22.4985 38.4387 22.6574 38.468C22.7315 38.4856 22.8089 38.4832 22.8817 38.4611C22.9546 38.4389 23.0205 38.3978 23.0729 38.3417C23.1926 38.2022 23.3135 38.0635 23.4328 37.9236C23.6833 37.6297 36.7602 21.3531 36.7602 21.3531C36.7602 21.3531 17.8661 34.326 17.8362 34.3476Z" fill="#4E89B6"/>
<g style="mix-blend-mode:multiply" opacity="0.3">
<path d="M17.8362 34.3477L16.1944 38.2431C16.1561 38.3403 16.2241 38.3714 16.2768 38.3231L19.6521 36.0126L17.8362 34.3477Z" fill="black"/>
</g>
</g>
<defs>
<clipPath id="clip0_401_732">
<rect width="255" height="48" fill="white"/>
</clipPath>
</defs>
</svg>
